<svg width="188" height="364" viewBox="0 0 188 364" fill="none" xmlns="http://www.w3.org/2000/svg">
<path d="M72 304C72 315.667 69.6667 325.333 65 333C60.3333 340.667 54.5 346.833 47.5 351.5C40.5 355.833 32.6667 359 24 361C15.6667 363 7.66667 364 3.72529e-07 364V73.5C3.72529e-07 50.1667 5.33333 32.1667 16 19.5C26.6667 6.83331 42 0.499971 62 0.499971C72 0.499971 80.1667 2.16665 86.5 5.5C92.8333 8.83333 97.6667 13.1667 101 18.5C104.667 23.8333 107.167 29.6667 108.5 36C109.833 42 110.5 47.8333 110.5 53.5C110.5 56.5 110.167 58.6666 109.5 60C105.167 56.3333 100 54.5 94 54.5C89 54.5 85 55.5 82 57.5C79.3333 59.1666 77.1667 61.5 75.5 64.5C74.1667 67.1667 73.1667 70.3333 72.5 74C72.1667 77.6667 72 81.5 72 85.5V304ZM116 1.49999H122.5C141.5 1.49999 157.167 7.49999 169.5 19.5C181.833 31.1667 188 48.1666 188 70.5V123C188 145 182.5 161.667 171.5 173C160.833 184.333 147.833 190.333 132.5 191H129C119.667 191 111.833 189.333 105.5 186C99.1667 182.667 94 178.5 90 173.5C86.3333 168.167 83.6667 162.5 82 156.5C80.3333 150.167 79.5 144 79.5 138C81.8333 140 84 141.5 86 142.5C88 143.167 92 143.5 98 143.5C102.333 143.5 105.667 142.333 108 140C110.667 137.333 112.5 134.167 113.5 130.5C114.833 126.833 115.5 122.833 115.5 118.5C115.833 113.833 116 109.667 116 106V1.49999ZM180 364H175C166.333 364 157.667 363.167 149 361.5C140.667 359.833 133 356.833 126 352.5C119.333 348.167 113.833 342.167 109.5 334.5C105.167 326.833 103 316.833 103 304.5V198.5H111C119.333 198.5 127.667 199.5 136 201.5C144.333 203.167 151.667 206.333 158 211C164.667 215.333 170 221.333 174 229C178 236.667 180 246.5 180 258.5V364Z" fill="url(#paint0_linear_1_3)"/>
<defs>
<linearGradient id="paint0_linear_1_3" x1="-25" y1="-11" x2="307.928" y2="191.42" gradientUnits="userSpaceOnUse">
<stop offset="0.3" stop-color="#F43B47"/>
<stop offset="1" stop-color="#453A94"/>
</linearGradient>
</defs>
</svg>
