<svg width="40" height="40" viewBox="0 0 40 40" fill="none" xmlns="http://www.w3.org/2000/svg">
<path d="M12.565 37.5C27.66 37.5 35.9175 24.9925 35.9175 14.165C35.9175 13.815 35.9175 13.46 35.9025 13.11C37.5101 11.9462 38.8977 10.5054 40 8.855C38.4983 9.51713 36.9069 9.95352 35.2775 10.15C36.9938 9.1241 38.2793 7.50992 38.895 5.6075C37.2825 6.56281 35.5175 7.23343 33.6775 7.59C32.4405 6.27256 30.8035 5.3998 29.0202 5.10689C27.2369 4.81399 25.4068 5.1173 23.8133 5.96984C22.2199 6.82238 20.952 8.17657 20.2061 9.82265C19.4602 11.4687 19.2779 13.3148 19.6875 15.075C16.4244 14.9114 13.232 14.0637 10.3176 12.5869C7.40317 11.11 4.83171 9.03711 2.77 6.5025C1.72335 8.31021 1.40393 10.4485 1.87662 12.4832C2.3493 14.5178 3.57864 16.2963 5.315 17.4575C4.01385 17.4133 2.7413 17.0639 1.6 16.4375V16.55C1.60224 18.4437 2.25827 20.2786 3.45718 21.7444C4.6561 23.2102 6.32437 24.2172 8.18 24.595C7.47566 24.789 6.74807 24.8858 6.0175 24.8825C5.50246 24.8841 4.98845 24.8363 4.4825 24.74C5.00697 26.3701 6.02818 27.7954 7.40312 28.8162C8.77805 29.837 10.4378 30.4021 12.15 30.4325C9.24139 32.717 5.6485 33.956 1.95 33.95C1.2983 33.9528 0.647058 33.9152 0 33.8375C3.75379 36.2307 8.11324 37.5014 12.565 37.5Z" fill="#1E1E1E"/>
</svg>
